<?xml version="1.0" encoding="utf-8"?>
<!-- Generator: Adobe Illustrator 15.1.0, SVG Export Plug-In . SVG Version: 6.00 Build 0)  -->
<!DOCTYPE svg PUBLIC "-//W3C//DTD SVG 1.1//EN" "http://www.w3.org/Graphics/SVG/1.1/DTD/svg11.dtd">
<svg version="1.1" id="Layer_2" xmlns="http://www.w3.org/2000/svg" xmlns:xlink="http://www.w3.org/1999/xlink" x="0px" y="0px"
	 width="800px" height="800px" viewBox="0 0 800 800" enable-background="new 0 0 800 800" xml:space="preserve">
<g>
	<path fill="#29A0F4" d="M799.49,670.477c-0.07,71.6-58.172,129.592-129.767,129.521l-540.2-0.506
		C57.923,799.422-0.067,741.322,0,669.723l0.507-540.195C0.574,57.924,58.679-0.066,130.276,0.002l540.198,0.51
		C742.071,0.578,800.065,58.678,800,130.279L799.49,670.477z"/>
	<path fill="#FFFFFF" d="M545.742,622.896v29.375l0.024-29.375H545.742z"/>
	<path fill="#FFFFFF" d="M524.334,73.441H275.656c-37.453,0-67.934,30.479-67.934,67.945v517.227
		c0,37.469,30.48,67.949,67.934,67.949h248.678c37.466,0,67.943-30.48,67.943-67.949V141.387
		C592.277,103.92,561.8,73.441,524.334,73.441z M254.258,141.387c0-11.809,9.602-21.408,21.398-21.408h44.927v10.588
		c0,7.633,6.184,13.813,13.813,13.813h131.209c7.634,0,13.813-6.18,13.813-13.813v-10.588h44.917c11.807,0,21.408,9.6,21.408,21.408
		v470.779H254.258V141.387z M303.835,680.021h-28.179c-11.797,0-21.398-9.611-21.398-21.408v-6.361l0.023-29.375l49.602,0.07
		L303.835,680.021z M364.554,680.021h-49.6L315,622.863l49.602,0.068L364.554,680.021z M424.974,680.021h-49.599l0.045-57.158
		l49.597,0.059L424.974,680.021z M485.681,680.021h-49.587l0.045-57.17l49.587,0.061L485.681,680.021z M545.742,652.271v6.586
		c-0.141,11.684-9.68,21.164-21.408,21.164H496.12l0.045-57.18l49.577,0.055h0.024L545.742,652.271z"/>
</g>
</svg>
