<?xml version="1.0" encoding="utf-8"?>
<!-- Generator: Adobe Illustrator 15.1.0, SVG Export Plug-In . SVG Version: 6.00 Build 0)  -->
<!DOCTYPE svg PUBLIC "-//W3C//DTD SVG 1.1//EN" "http://www.w3.org/Graphics/SVG/1.1/DTD/svg11.dtd">
<svg version="1.1" id="Layer_2" xmlns="http://www.w3.org/2000/svg" xmlns:xlink="http://www.w3.org/1999/xlink" x="0px" y="0px"
	 width="800px" height="200px" viewBox="0 0 800 200" enable-background="new 0 0 800 200" xml:space="preserve">
<g>
	<g>
		<path fill="#29A0F4" d="M146.014,149.398c-0.013,13.076-10.624,23.668-23.7,23.654l-98.658-0.092
			C10.579,172.947-0.013,162.338,0,149.26l0.093-98.656c0.013-13.078,10.624-23.668,23.7-23.656l98.658,0.092
			c13.076,0.014,23.668,10.623,23.655,23.701L146.014,149.398z"/>
		<path fill="#FFFFFF" d="M99.671,140.709v5.365l0.004-5.365H99.671z"/>
		<path fill="#FFFFFF" d="M95.761,40.359H50.345c-6.841,0-12.407,5.566-12.407,12.41v94.461c0,6.844,5.566,12.41,12.407,12.41
			h45.416c6.843,0,12.409-5.566,12.409-12.41V52.77C108.17,45.926,102.604,40.359,95.761,40.359z M46.437,52.77
			c0-2.158,1.753-3.91,3.908-3.91h8.204v1.934c0,1.393,1.13,2.521,2.524,2.521h23.962c1.395,0,2.522-1.129,2.522-2.521v-1.934h8.203
			c2.156,0,3.91,1.752,3.91,3.91v85.979H46.437V52.77z M55.491,151.141h-5.146c-2.155,0-3.908-1.756-3.908-3.91v-1.16l0.004-5.365
			l9.059,0.012L55.491,151.141z M66.58,151.141h-9.059l0.009-10.439l9.059,0.014L66.58,151.141z M77.614,151.141h-9.058
			l0.008-10.439l9.058,0.012L77.614,151.141z M88.701,151.141h-9.056l0.008-10.441l9.057,0.012L88.701,151.141z M99.671,146.074
			v1.201c-0.025,2.135-1.768,3.865-3.91,3.865h-5.152l0.008-10.443l9.055,0.012h0.004L99.671,146.074z"/>
	</g>
	<g>
		<path fill="#29A0F4" d="M227.843,63.918h-0.137c-1.123,0-2.092,0.395-2.913,1.182c-0.819,0.82-1.229,1.807-1.229,2.959v25.855
			h-27.948V68.059c0-1.152-0.409-2.139-1.229-2.959c-0.82-0.787-1.792-1.182-2.914-1.182h-0.136c-1.124,0-2.094,0.395-2.914,1.182
			c-0.818,0.82-1.229,1.807-1.229,2.959v60.084c0,1.154,0.41,2.123,1.229,2.912c0.82,0.82,1.79,1.23,2.914,1.23h0.136
			c1.122,0,2.094-0.41,2.914-1.23c0.819-0.789,1.229-1.758,1.229-2.912v-25.854h27.948v25.854c0,1.154,0.409,2.123,1.229,2.912
			c0.821,0.82,1.79,1.23,2.913,1.23h0.137c1.122,0,2.094-0.41,2.913-1.23c0.819-0.789,1.229-1.758,1.229-2.912V68.059
			c0-1.152-0.41-2.139-1.229-2.959C229.937,64.313,228.965,63.918,227.843,63.918z"/>
		<path fill="#29A0F4" d="M282.646,63.918h-0.137c-1.123,0-2.094,0.395-2.913,1.182c-0.82,0.82-1.229,1.807-1.229,2.959v25.855
			H250.42V68.059c0-1.152-0.41-2.139-1.229-2.959c-0.82-0.787-1.792-1.182-2.914-1.182h-0.137c-1.123,0-2.094,0.395-2.913,1.182
			c-0.819,0.82-1.229,1.807-1.229,2.959v60.084c0,1.154,0.409,2.123,1.229,2.912c0.819,0.82,1.79,1.23,2.913,1.23h0.137
			c1.122,0,2.094-0.41,2.914-1.23c0.818-0.789,1.229-1.758,1.229-2.912v-25.854h27.947v25.854c0,1.154,0.409,2.123,1.229,2.912
			c0.819,0.82,1.79,1.23,2.913,1.23h0.137c1.122,0,2.094-0.41,2.913-1.23c0.818-0.789,1.229-1.758,1.229-2.912V68.059
			c0-1.152-0.41-2.139-1.229-2.959C284.74,64.313,283.769,63.918,282.646,63.918z"/>
		<path fill="#29A0F4" d="M331.077,63.918h-33.319c-1.123,0-2.093,0.395-2.913,1.182c-0.818,0.82-1.229,1.807-1.229,2.959v0.092
			c0,1.152,0.41,2.139,1.229,2.959c0.82,0.789,1.79,1.182,2.913,1.182h12.473v55.852c0,1.154,0.394,2.123,1.183,2.912
			c0.819,0.82,1.806,1.23,2.959,1.23h0.092c1.152,0,2.139-0.41,2.958-1.23c0.789-0.789,1.184-1.758,1.184-2.912V72.291h12.472
			c1.152,0,2.124-0.393,2.913-1.182c0.819-0.82,1.229-1.807,1.229-2.959v-0.092c0-1.152-0.41-2.139-1.229-2.959
			C333.201,64.313,332.229,63.918,331.077,63.918z"/>
		<path fill="#29A0F4" d="M366.444,82.58c-6.858,0-12.715,2.428-17.57,7.281c-4.855,4.855-7.282,10.713-7.282,17.57
			s2.427,12.715,7.282,17.57s10.712,7.283,17.57,7.283c6.251,0,11.729-2.078,16.432-6.236v2.094c0,1.154,0.409,2.123,1.229,2.912
			c0.818,0.82,1.79,1.23,2.913,1.23h0.136c1.123,0,2.095-0.41,2.914-1.23c0.818-0.789,1.229-1.758,1.229-2.912v-20.711
			c0-6.857-2.428-12.715-7.283-17.57C379.158,85.008,373.302,82.58,366.444,82.58z M378.052,119.084
			c-3.187,3.186-7.056,4.779-11.607,4.779s-8.437-1.594-11.653-4.779c-3.186-3.215-4.779-7.1-4.779-11.652
			c0-4.521,1.594-8.391,4.779-11.607c3.217-3.217,7.102-4.824,11.653-4.824s8.421,1.607,11.607,4.824
			c3.216,3.217,4.824,7.086,4.824,11.607C382.876,111.984,381.268,115.869,378.052,119.084z"/>
		<path fill="#29A0F4" d="M425.254,82.58c-6.282,0-11.76,2.078-16.433,6.234V68.059c0-1.152-0.409-2.139-1.229-2.959
			c-0.819-0.787-1.791-1.182-2.913-1.182h-0.138c-1.122,0-2.093,0.395-2.912,1.182c-0.82,0.82-1.229,1.807-1.229,2.959v39.51
			c0.029,6.828,2.473,12.654,7.328,17.479c4.824,4.824,10.665,7.238,17.524,7.238c6.856,0,12.714-2.428,17.569-7.283
			c4.854-4.855,7.282-10.713,7.282-17.57s-2.428-12.715-7.282-17.57C437.968,85.008,432.11,82.58,425.254,82.58z M436.86,119.176
			c-3.186,3.217-7.056,4.824-11.606,4.824c-4.552,0-8.437-1.607-11.653-4.824c-3.186-3.217-4.779-7.086-4.779-11.607
			c0-4.551,1.594-8.436,4.779-11.652c3.217-3.217,7.102-4.824,11.653-4.824c4.551,0,8.421,1.607,11.606,4.824
			c3.216,3.217,4.825,7.102,4.825,11.652C441.686,112.09,440.076,115.959,436.86,119.176z"/>
		<path fill="#29A0F4" d="M492.619,96.918c4.462-3.732,6.691-8.512,6.691-14.338c0-5.16-1.821-9.561-5.462-13.201
			c-3.642-3.641-8.057-5.461-13.246-5.461H469.77c-3.155,0-5.857,1.107-8.103,3.322c-2.245,2.246-3.368,4.961-3.368,8.146v45.428
			c0,3.156,1.123,5.855,3.368,8.102s4.947,3.369,8.103,3.369h10.833c5.463,0,10.12-1.928,13.975-5.781
			c3.853-3.854,5.78-8.496,5.78-13.928C500.357,106.082,497.778,100.863,492.619,96.918z M466.72,75.387
			c0-0.848,0.288-1.576,0.864-2.186c0.607-0.605,1.336-0.91,2.186-0.91h10.833c2.853,0,5.28,1.018,7.282,3.051
			c2.004,2.002,3.005,4.416,3.005,7.238c0,2.852-1.001,5.279-3.005,7.281c-2.002,1.975-4.43,2.959-7.282,2.959l-13.883,0.045V75.387
			z M488.614,120.586c-2.216,2.186-4.887,3.277-8.012,3.277H469.77c-0.85,0-1.578-0.287-2.186-0.865
			c-0.576-0.605-0.864-1.334-0.864-2.184v-19.572h13.883c3.125,0,5.796,1.107,8.012,3.322c2.185,2.215,3.276,4.885,3.276,8.012
			C491.891,115.701,490.799,118.371,488.614,120.586z"/>
		<path fill="#29A0F4" d="M532.948,82.58c-6.858,0-12.715,2.428-17.569,7.281c-4.855,4.855-7.283,10.713-7.283,17.57
			s2.428,12.715,7.283,17.57c4.854,4.855,10.711,7.283,17.569,7.283c6.251,0,11.728-2.078,16.432-6.236v2.094
			c0,1.154,0.41,2.123,1.229,2.912c0.82,0.82,1.791,1.23,2.913,1.23h0.137c1.123,0,2.094-0.41,2.913-1.23
			c0.819-0.789,1.229-1.758,1.229-2.912v-20.711c0-6.857-2.428-12.715-7.282-17.57C545.663,85.008,539.806,82.58,532.948,82.58z
			 M544.556,119.084c-3.187,3.186-7.056,4.779-11.607,4.779s-8.437-1.594-11.652-4.779c-3.187-3.215-4.779-7.1-4.779-11.652
			c0-4.521,1.593-8.391,4.779-11.607c3.216-3.217,7.101-4.824,11.652-4.824s8.421,1.607,11.607,4.824
			c3.215,3.217,4.824,7.086,4.824,11.607C549.38,111.984,547.771,115.869,544.556,119.084z"/>
		<path fill="#29A0F4" d="M588.207,82.58h-2.595c-5.188,0-9.604,1.82-13.245,5.461c-3.581,3.643-5.402,8.057-5.462,13.246v26.855
			c0,1.154,0.409,2.123,1.229,2.912c0.819,0.82,1.79,1.23,2.913,1.23h0.136c1.123,0,2.095-0.41,2.914-1.23
			c0.818-0.789,1.229-1.758,1.229-2.912v-26.855c0.029-2.852,1.031-5.279,3.005-7.283c2.002-2.002,4.43-3.004,7.282-3.004h2.595
			c1.152,0,2.14-0.41,2.958-1.229c0.789-0.789,1.184-1.76,1.184-2.914v-0.09c0-1.154-0.395-2.141-1.184-2.959
			C590.347,82.988,589.359,82.58,588.207,82.58z"/>
		<path fill="#29A0F4" d="M640.324,63.918h-0.318c-1.973,0-3.277,0.924-3.914,2.775l-16.523,53.984l-0.137,0.273
			c-0.091,0.182-0.198,0.273-0.317,0.273c-0.123,0-0.229-0.092-0.32-0.273l-0.136-0.273l-16.523-53.984
			c-0.637-1.852-1.941-2.775-3.914-2.775h-0.319c-1.427,0-2.563,0.576-3.412,1.729c-0.82,1.154-0.988,2.412-0.502,3.777
			l18.617,58.445c1.183,2.943,3.352,4.416,6.51,4.416c3.155,0,5.309-1.473,6.463-4.416l18.662-58.445
			c0.484-1.365,0.302-2.623-0.546-3.777C642.873,64.494,641.75,63.918,640.324,63.918z"/>
		<path fill="#29A0F4" d="M655.892,63.963c-1.396,0-2.579,0.484-3.551,1.455c-0.972,0.973-1.456,2.141-1.456,3.506
			c0,1.396,0.484,2.58,1.456,3.551s2.154,1.457,3.551,1.457c1.365,0,2.533-0.486,3.505-1.457c1.001-0.971,1.502-2.154,1.502-3.551
			c0-1.365-0.501-2.533-1.502-3.506C658.425,64.447,657.257,63.963,655.892,63.963z"/>
		<path fill="#29A0F4" d="M655.938,82.58h-0.092c-1.153,0-2.139,0.408-2.958,1.229c-0.82,0.818-1.229,1.805-1.229,2.959v41.375
			c0,1.154,0.409,2.123,1.229,2.912c0.819,0.82,1.805,1.23,2.958,1.23h0.092c1.152,0,2.124-0.41,2.913-1.23
			c0.819-0.789,1.229-1.758,1.229-2.912V86.768c0-1.154-0.409-2.141-1.229-2.959C658.062,82.988,657.09,82.58,655.938,82.58z"/>
		<path fill="#29A0F4" d="M713.927,110.117c-2.003,0-3.339,0.941-4.006,2.822c-1.123,3.246-3.08,5.887-5.872,7.92
			c-2.883,2.094-6.099,3.141-9.649,3.141c-5.341,0-9.649-2.094-12.927-6.281c2.55-1.152,8.117-3.672,16.705-7.557
			c6.918-3.125,12.502-5.643,16.75-7.555c1.062-0.486,1.79-1.26,2.187-2.322c0.393-1.092,0.347-2.154-0.138-3.186
			c-1.973-4.34-4.978-7.83-9.013-10.469c-4.097-2.701-8.618-4.051-13.564-4.051c-6.858,0-12.715,2.428-17.57,7.281
			c-4.855,4.855-7.283,10.713-7.283,17.57s2.428,12.715,7.283,17.57s10.712,7.283,17.57,7.283c5.341,0,10.181-1.563,14.521-4.689
			c4.248-3.033,7.222-7.01,8.922-11.926c0.484-1.365,0.317-2.623-0.501-3.777C716.49,110.709,715.353,110.117,713.927,110.117z
			 M677.968,107.568c0-4.551,1.593-8.436,4.779-11.652c3.216-3.217,7.101-4.824,11.652-4.824c5.098,0,9.286,1.955,12.563,5.871
			l-28.813,13.018C678.028,109.191,677.968,108.387,677.968,107.568z"/>
		<path fill="#29A0F4" d="M798.816,83.809c-0.818-0.82-1.805-1.229-2.958-1.229h-0.091c-1.153,0-2.124,0.408-2.913,1.229
			c-0.82,0.818-1.229,1.805-1.229,2.959v24.988c0,3.338-1.184,6.191-3.55,8.559c-2.367,2.365-5.235,3.549-8.604,3.549
			c-3.338,0-6.189-1.184-8.557-3.549c-2.367-2.367-3.551-5.221-3.551-8.559V86.768c0-1.154-0.409-2.141-1.229-2.959
			c-0.789-0.82-1.759-1.229-2.913-1.229h-0.091c-1.153,0-2.139,0.408-2.959,1.229c-0.818,0.818-1.229,1.805-1.229,2.959v24.988
			c0,3.338-1.184,6.191-3.551,8.559c-2.366,2.365-5.219,3.549-8.557,3.549s-6.19-1.184-8.558-3.549
			c-2.367-2.367-3.551-5.221-3.551-8.559V86.768c0-1.154-0.409-2.141-1.229-2.959c-0.818-0.82-1.79-1.229-2.913-1.229h-0.137
			c-1.123,0-2.094,0.408-2.913,1.229c-0.819,0.818-1.229,1.805-1.229,2.959v24.988c0,5.676,2.003,10.514,6.008,14.52
			c4.006,4.006,8.846,6.01,14.521,6.01c6.767,0,12.214-2.688,16.341-8.057c4.097,5.369,9.528,8.057,16.295,8.057
			c5.674,0,10.515-2.004,14.521-6.01s6.008-8.844,6.008-14.52V86.768C800,85.613,799.605,84.627,798.816,83.809z"/>
	</g>
</g>
</svg>
