<?xml version="1.0" encoding="utf-8"?>
<!-- Generator: Adobe Illustrator 15.1.0, SVG Export Plug-In . SVG Version: 6.00 Build 0)  -->
<!DOCTYPE svg PUBLIC "-//W3C//DTD SVG 1.1//EN" "http://www.w3.org/Graphics/SVG/1.1/DTD/svg11.dtd">
<svg version="1.1" id="Layer_2" xmlns="http://www.w3.org/2000/svg" xmlns:xlink="http://www.w3.org/1999/xlink" x="0px" y="0px"
	 width="400px" height="400px" viewBox="0 0 400 400" enable-background="new 0 0 400 400" xml:space="preserve">
<g>
	<g>
		<path fill="#29A0F4" d="M338.859,254.029c-0.024,24.887-20.22,45.045-45.105,45.021l-187.77-0.178
			c-24.888-0.023-45.043-20.219-45.021-45.105L61.14,66c0.023-24.889,20.22-45.045,45.106-45.021l187.769,0.176
			c24.887,0.023,45.045,20.219,45.021,45.107L338.859,254.029z"/>
		<path fill="#FFFFFF" d="M250.658,237.49v10.211l0.009-10.211H250.658z"/>
		<path fill="#FFFFFF" d="M243.217,46.504h-86.438c-13.019,0-23.613,10.596-23.613,23.619v179.783
			c0,13.023,10.595,23.617,23.613,23.617h86.438c13.023,0,23.617-10.594,23.617-23.617V70.123
			C266.834,57.1,256.24,46.504,243.217,46.504z M149.342,70.123c0-4.105,3.337-7.441,7.438-7.441h15.616v3.68
			c0,2.652,2.149,4.801,4.801,4.801h45.607c2.653,0,4.801-2.148,4.801-4.801v-3.68h15.612c4.104,0,7.441,3.336,7.441,7.441v163.639
			H149.342V70.123z M166.574,257.348h-9.795c-4.101,0-7.438-3.342-7.438-7.441v-2.211l0.008-10.211l17.241,0.023L166.574,257.348z
			 M187.68,257.348h-17.241l0.017-19.867l17.241,0.023L187.68,257.348z M208.681,257.348h-17.239l0.015-19.867l17.239,0.02
			L208.681,257.348z M229.782,257.348h-17.236l0.016-19.873l17.236,0.021L229.782,257.348z M250.658,247.701v2.289
			c-0.049,4.061-3.364,7.357-7.441,7.357h-9.807l0.016-19.875l17.232,0.018h0.009L250.658,247.701z"/>
	</g>
	<g>
		<path fill="#29A0F4" d="M26.532,334.396h-0.089c-0.732,0-1.367,0.256-1.901,0.771c-0.535,0.535-0.803,1.18-0.803,1.932v16.875
			H5.497V337.1c0-0.752-0.267-1.396-0.803-1.932c-0.533-0.516-1.169-0.771-1.901-0.771H2.704c-0.732,0-1.366,0.256-1.901,0.771
			C0.269,335.703,0,336.348,0,337.1v39.219c0,0.754,0.269,1.387,0.803,1.9c0.535,0.535,1.169,0.803,1.901,0.803h0.089
			c0.732,0,1.368-0.268,1.901-0.803c0.536-0.514,0.803-1.146,0.803-1.9v-16.877h18.242v16.877c0,0.754,0.268,1.387,0.803,1.9
			c0.534,0.535,1.169,0.803,1.901,0.803h0.089c0.733,0,1.366-0.268,1.902-0.803c0.533-0.514,0.802-1.146,0.802-1.9V337.1
			c0-0.752-0.269-1.396-0.802-1.932C27.898,334.652,27.266,334.396,26.532,334.396z"/>
		<path fill="#29A0F4" d="M62.304,334.396h-0.089c-0.732,0-1.365,0.256-1.901,0.771c-0.533,0.535-0.803,1.18-0.803,1.932v16.875
			H41.269V337.1c0-0.752-0.267-1.396-0.801-1.932c-0.535-0.516-1.171-0.771-1.901-0.771h-0.091c-0.732,0-1.366,0.256-1.901,0.771
			c-0.534,0.535-0.801,1.18-0.801,1.932v39.219c0,0.754,0.267,1.387,0.801,1.9c0.535,0.535,1.169,0.803,1.901,0.803h0.091
			c0.73,0,1.366-0.268,1.901-0.803c0.534-0.514,0.801-1.146,0.801-1.9v-16.877h18.242v16.877c0,0.754,0.27,1.387,0.803,1.9
			c0.536,0.535,1.169,0.803,1.901,0.803h0.089c0.733,0,1.368-0.268,1.902-0.803c0.535-0.514,0.802-1.146,0.802-1.9V337.1
			c0-0.752-0.267-1.396-0.802-1.932C63.672,334.652,63.037,334.396,62.304,334.396z"/>
		<path fill="#29A0F4" d="M93.917,334.396H72.168c-0.732,0-1.366,0.256-1.9,0.771c-0.535,0.535-0.802,1.18-0.802,1.932v0.059
			c0,0.754,0.267,1.396,0.802,1.932c0.534,0.516,1.168,0.771,1.9,0.771h8.142v36.457c0,0.754,0.257,1.387,0.772,1.9
			c0.534,0.535,1.178,0.803,1.932,0.803h0.06c0.752,0,1.396-0.268,1.931-0.803c0.515-0.514,0.772-1.146,0.772-1.9v-36.457h8.141
			c0.752,0,1.387-0.256,1.901-0.771c0.535-0.535,0.803-1.178,0.803-1.932V337.1c0-0.752-0.268-1.396-0.803-1.932
			C95.304,334.652,94.669,334.396,93.917,334.396z"/>
		<path fill="#29A0F4" d="M117.002,346.576c-4.477,0-8.299,1.586-11.469,4.754c-3.168,3.17-4.753,6.994-4.753,11.469
			c0,4.477,1.585,8.301,4.753,11.469c3.17,3.17,6.992,4.754,11.469,4.754c4.081,0,7.655-1.355,10.726-4.07v1.367
			c0,0.754,0.269,1.387,0.803,1.9c0.536,0.535,1.169,0.803,1.901,0.803h0.089c0.732,0,1.368-0.268,1.901-0.803
			c0.536-0.514,0.803-1.146,0.803-1.9v-13.52c0-4.475-1.584-8.299-4.754-11.469C125.301,348.162,121.479,346.576,117.002,346.576z
			 M124.579,370.406c-2.08,2.078-4.606,3.119-7.577,3.119s-5.506-1.041-7.605-3.119c-2.08-2.1-3.12-4.637-3.12-7.607
			c0-2.951,1.04-5.475,3.12-7.576c2.1-2.098,4.635-3.148,7.605-3.148s5.497,1.051,7.577,3.148c2.099,2.102,3.148,4.625,3.148,7.576
			C127.728,365.77,126.678,368.307,124.579,370.406z"/>
		<path fill="#29A0F4" d="M155.389,346.576c-4.1,0-7.676,1.357-10.726,4.072V337.1c0-0.752-0.267-1.396-0.802-1.932
			c-0.534-0.516-1.169-0.771-1.902-0.771h-0.089c-0.732,0-1.365,0.256-1.901,0.771c-0.533,0.535-0.803,1.18-0.803,1.932v25.789
			c0.021,4.457,1.616,8.26,4.784,11.408c3.15,3.15,6.962,4.725,11.438,4.725s8.299-1.584,11.469-4.754
			c3.17-3.168,4.754-6.992,4.754-11.469c0-4.475-1.584-8.299-4.754-11.469C163.688,348.162,159.865,346.576,155.389,346.576z
			 M162.966,370.465c-2.08,2.1-4.606,3.148-7.577,3.148s-5.506-1.049-7.605-3.148c-2.08-2.1-3.12-4.625-3.12-7.576
			c0-2.971,1.04-5.506,3.12-7.607c2.1-2.098,4.635-3.148,7.605-3.148s5.497,1.051,7.577,3.148c2.099,2.102,3.15,4.637,3.15,7.607
			C166.116,365.84,165.064,368.365,162.966,370.465z"/>
		<path fill="#29A0F4" d="M199.361,355.936c2.912-2.436,4.368-5.555,4.368-9.359c0-3.365-1.189-6.238-3.565-8.615
			s-5.26-3.564-8.646-3.564h-7.073c-2.058,0-3.822,0.723-5.287,2.168c-1.466,1.467-2.198,3.238-2.198,5.318v29.652
			c0,2.059,0.732,3.822,2.198,5.289c1.465,1.465,3.229,2.197,5.287,2.197h7.073c3.565,0,6.604-1.258,9.12-3.773
			s3.773-5.545,3.773-9.092C204.412,361.918,202.729,358.512,199.361,355.936z M182.455,341.883c0-0.555,0.188-1.029,0.565-1.426
			c0.396-0.396,0.872-0.596,1.425-0.596h7.073c1.861,0,3.445,0.664,4.753,1.992c1.307,1.307,1.961,2.881,1.961,4.723
			c0,1.863-0.654,3.447-1.961,4.754c-1.308,1.289-2.892,1.932-4.753,1.932l-9.063,0.029V341.883z M196.746,371.387
			c-1.446,1.426-3.188,2.139-5.228,2.139h-7.073c-0.553,0-1.029-0.188-1.425-0.564c-0.377-0.396-0.565-0.871-0.565-1.426V358.76
			h9.063c2.039,0,3.781,0.723,5.228,2.168c1.428,1.445,2.141,3.189,2.141,5.229C198.887,368.197,198.174,369.941,196.746,371.387z"
			/>
		<path fill="#29A0F4" d="M225.685,346.576c-4.477,0-8.299,1.586-11.469,4.754c-3.168,3.17-4.752,6.994-4.752,11.469
			c0,4.477,1.584,8.301,4.752,11.469c3.17,3.17,6.992,4.754,11.469,4.754c4.081,0,7.657-1.355,10.728-4.07v1.367
			c0,0.754,0.267,1.387,0.801,1.9c0.535,0.535,1.169,0.803,1.901,0.803h0.091c0.73,0,1.366-0.268,1.899-0.803
			c0.536-0.514,0.803-1.146,0.803-1.9v-13.52c0-4.475-1.584-8.299-4.754-11.469C233.985,348.162,230.161,346.576,225.685,346.576z
			 M233.262,370.406c-2.08,2.078-4.604,3.119-7.577,3.119c-2.971,0-5.506-1.041-7.606-3.119c-2.079-2.1-3.119-4.637-3.119-7.607
			c0-2.951,1.04-5.475,3.119-7.576c2.101-2.098,4.636-3.148,7.606-3.148c2.973,0,5.497,1.051,7.577,3.148
			c2.1,2.102,3.15,4.625,3.15,7.576C236.412,365.77,235.361,368.307,233.262,370.406z"/>
		<path fill="#29A0F4" d="M261.755,346.576h-1.694c-3.386,0-6.268,1.189-8.646,3.566c-2.338,2.377-3.526,5.26-3.564,8.646v17.529
			c0,0.754,0.267,1.387,0.801,1.9c0.536,0.535,1.169,0.803,1.901,0.803h0.089c0.733,0,1.368-0.268,1.903-0.803
			c0.534-0.514,0.801-1.146,0.801-1.9v-17.529c0.02-1.861,0.674-3.447,1.963-4.754c1.307-1.309,2.891-1.961,4.752-1.961h1.694
			c0.752,0,1.397-0.268,1.931-0.803c0.515-0.516,0.773-1.148,0.773-1.902v-0.059c0-0.752-0.259-1.396-0.773-1.932
			C263.152,346.844,262.507,346.576,261.755,346.576z"/>
		<path fill="#29A0F4" d="M295.773,334.396h-0.207c-1.288,0-2.14,0.604-2.555,1.813l-10.787,35.236l-0.089,0.178
			c-0.059,0.119-0.129,0.18-0.207,0.18c-0.08,0-0.148-0.061-0.208-0.18l-0.089-0.178l-10.785-35.236
			c-0.416-1.209-1.268-1.813-2.556-1.813h-0.207c-0.932,0-1.675,0.375-2.229,1.129c-0.534,0.752-0.644,1.574-0.326,2.465
			l12.152,38.15c0.771,1.92,2.188,2.881,4.248,2.881c2.06,0,3.466-0.961,4.218-2.881l12.183-38.15
			c0.317-0.891,0.196-1.713-0.356-2.465C297.438,334.771,296.705,334.396,295.773,334.396z"/>
		<path fill="#29A0F4" d="M305.935,334.426c-0.909,0-1.684,0.316-2.316,0.951c-0.634,0.633-0.951,1.396-0.951,2.287
			c0,0.912,0.317,1.684,0.951,2.316c0.633,0.635,1.407,0.951,2.316,0.951c0.892,0,1.654-0.316,2.287-0.951
			c0.654-0.633,0.982-1.404,0.982-2.316c0-0.891-0.328-1.654-0.982-2.287C307.589,334.742,306.826,334.426,305.935,334.426z"/>
		<path fill="#29A0F4" d="M305.965,346.576h-0.06c-0.754,0-1.396,0.268-1.932,0.803c-0.535,0.535-0.802,1.18-0.802,1.932v27.008
			c0,0.754,0.267,1.387,0.802,1.9c0.536,0.535,1.178,0.803,1.932,0.803h0.06c0.753,0,1.387-0.268,1.901-0.803
			c0.535-0.514,0.803-1.146,0.803-1.9v-27.008c0-0.752-0.268-1.396-0.803-1.932C307.352,346.844,306.718,346.576,305.965,346.576z"
			/>
		<path fill="#29A0F4" d="M343.817,364.553c-1.309,0-2.181,0.613-2.615,1.842c-0.732,2.119-2.011,3.844-3.833,5.17
			c-1.882,1.367-3.98,2.049-6.299,2.049c-3.485,0-6.298-1.365-8.438-4.1c1.664-0.752,5.3-2.396,10.905-4.932
			c4.515-2.039,8.159-3.684,10.933-4.932c0.692-0.318,1.169-0.822,1.427-1.516c0.257-0.713,0.228-1.406-0.089-2.08
			c-1.289-2.832-3.25-5.109-5.884-6.834c-2.673-1.762-5.625-2.645-8.854-2.645c-4.477,0-8.299,1.586-11.469,4.754
			c-3.17,3.17-4.754,6.994-4.754,11.469c0,4.477,1.584,8.301,4.754,11.469c3.17,3.17,6.992,4.754,11.469,4.754
			c3.485,0,6.645-1.02,9.478-3.061c2.774-1.98,4.714-4.574,5.823-7.783c0.317-0.891,0.208-1.713-0.326-2.467
			C345.49,364.939,344.747,364.553,343.817,364.553z M320.345,362.889c0-2.971,1.04-5.506,3.119-7.607
			c2.101-2.098,4.636-3.148,7.606-3.148c3.328,0,6.061,1.277,8.201,3.834l-18.809,8.496
			C320.385,363.949,320.345,363.424,320.345,362.889z"/>
		<path fill="#29A0F4" d="M399.228,347.379c-0.534-0.535-1.178-0.803-1.932-0.803h-0.06c-0.752,0-1.387,0.268-1.901,0.803
			c-0.533,0.535-0.803,1.18-0.803,1.932v16.311c0,2.18-0.771,4.041-2.316,5.586s-3.417,2.318-5.615,2.318
			c-2.18,0-4.041-0.773-5.586-2.318c-1.544-1.545-2.317-3.406-2.317-5.586v-16.311c0-0.752-0.267-1.396-0.802-1.932
			c-0.515-0.535-1.148-0.803-1.902-0.803h-0.059c-0.754,0-1.396,0.268-1.932,0.803c-0.535,0.535-0.803,1.18-0.803,1.932v16.311
			c0,2.18-0.772,4.041-2.316,5.586c-1.546,1.545-3.407,2.318-5.586,2.318s-4.04-0.773-5.586-2.318s-2.316-3.406-2.316-5.586v-16.311
			c0-0.752-0.27-1.396-0.803-1.932c-0.536-0.535-1.169-0.803-1.901-0.803h-0.089c-0.733,0-1.368,0.268-1.902,0.803
			c-0.535,0.535-0.802,1.18-0.802,1.932v16.311c0,3.705,1.307,6.863,3.921,9.479c2.615,2.615,5.774,3.922,9.479,3.922
			c4.417,0,7.973-1.754,10.666-5.258c2.675,3.504,6.22,5.258,10.637,5.258c3.703,0,6.862-1.307,9.478-3.922s3.922-5.773,3.922-9.479
			v-16.311C400,348.559,399.742,347.914,399.228,347.379z"/>
	</g>
</g>
</svg>
